<?xml version="1.0" encoding="utf-8"?>
<!-- Generator: Adobe Illustrator 17.0.2, SVG Export Plug-In . SVG Version: 6.00 Build 0)  -->
<!DOCTYPE svg PUBLIC "-//W3C//DTD SVG 1.0//EN" "http://www.w3.org/TR/2001/REC-SVG-20010904/DTD/svg10.dtd">
<svg version="1.0" id="Layer_1" xmlns="http://www.w3.org/2000/svg" xmlns:xlink="http://www.w3.org/1999/xlink" x="0px" y="0px"
	 width="50px" height="50px" viewBox="0 0 50 50" style="enable-background:new 0 0 50 50;fill:#9c27b0" xml:space="preserve">
<g>
	<path d="M14.495,1.272C13.035,0.44,11.377,0,9.703,0C4.353,0,0,4.353,0,9.703c0,1.674,0.44,3.332,1.272,4.792l0.649,1.139
		L15.634,1.921L14.495,1.272z M2.447,12.279C2.153,11.454,2,10.581,2,9.703C2,5.456,5.456,2,9.703,2c0.878,0,1.75,0.153,2.576,0.447
		L2.447,12.279z"/>
	<path d="M25,10c-0.552,0-1,0.448-1,1v15h-9c-0.552,0-1,0.447-1,1s0.448,1,1,1h10c0.553,0,1-0.447,1-1V11C26,10.448,25.553,10,25,10
		z"/>
	<path d="M40.297,0c-1.675,0-3.332,0.44-4.792,1.272l-1.139,0.649l13.713,13.713l0.649-1.14C49.561,13.034,50,11.377,50,9.703
		C50,4.353,45.647,0,40.297,0z M47.553,12.279l-9.832-9.832C38.546,2.153,39.419,2,40.297,2C44.544,2,48,5.456,48,9.703
		C48,10.581,47.848,11.454,47.553,12.279z"/>
	<path d="M25,4C12.318,4,2,14.318,2,27c0,6.236,2.495,11.9,6.539,16.048l-5.246,5.245c-0.391,0.391-0.391,1.023,0,1.414
		s1.023,0.391,1.414,0l5.289-5.288C14.026,47.896,19.272,50,25,50c5.729,0,10.974-2.104,15.004-5.581l5.289,5.288
		C45.488,49.902,45.744,50,46,50s0.512-0.098,0.707-0.293c0.391-0.391,0.391-1.023,0-1.414l-5.245-5.245
		C45.505,38.9,48,33.236,48,27C48,14.318,37.683,4,25,4z M25,48C13.42,48,4,38.579,4,27C4,15.42,13.42,6,25,6
		c11.579,0,21,9.42,21,21C46,38.579,36.579,48,25,48z"/>
</g>
</svg>
