<?xml version="1.0" encoding="utf-8"?>
<!-- Generator: Adobe Illustrator 17.0.2, SVG Export Plug-In . SVG Version: 6.00 Build 0)  -->
<!DOCTYPE svg PUBLIC "-//W3C//DTD SVG 1.0//EN" "http://www.w3.org/TR/2001/REC-SVG-20010904/DTD/svg10.dtd">
<svg version="1.0" id="Layer_1" xmlns="http://www.w3.org/2000/svg" xmlns:xlink="http://www.w3.org/1999/xlink" x="0px" y="0px"
	 width="50px" height="50px" viewBox="0 0 50 50" style="enable-background:new 0 0 50 50;" xml:space="preserve">
<g>
	<path d="M10,39c-2.243,0-4-1.757-4-4c0-0.553-0.448-1-1-1s-1,0.447-1,1c0,3.364,2.636,6,6,6c0.552,0,1-0.447,1-1S10.552,39,10,39z"
		/>
	<path d="M49.493,31.854c-0.505-1.996-3.24-12.79-4.445-16.77c-0.469-1.407-1.14-3.422-3.078-4.69
		c-0.018-0.127-0.045-0.262-0.09-0.411C41.476,7.135,38.965,5,36,5c-3.364,0-6,2.636-6,6c0,0.677,0.12,1.387,0.35,2.084
		c-0.096,0.111-0.188,0.219-0.278,0.324c-0.308,0.359-0.706,0.824-0.962,1.046c-1.172-0.863-2.618-1.354-4.01-1.354
		c-1.463,0-2.999,0.528-4.039,1.363c-0.263-0.22-0.683-0.712-1.004-1.089c-0.116-0.136-0.237-0.278-0.363-0.424
		C19.895,12.296,20,11.633,20,11c0-3.364-2.636-6-6-6c-2.965,0-5.476,2.135-5.879,4.982c-0.055,0.184-0.085,0.346-0.101,0.498
		c-1.907,1.307-2.495,3.321-2.87,4.611c-1.12,3.439-3.271,12.016-4.144,15.541C0.361,31.952,0,33.435,0,35c0,5.514,4.486,10,10,10
		c5.356,0,9.742-4.232,9.989-9.529C21.106,36.273,22.742,37,25,37s3.894-0.727,5.011-1.529C30.258,40.768,34.644,45,40,45
		c5.514,0,10-4.486,10-10C50,33.901,49.822,32.843,49.493,31.854z M36,7c1.67,0,3.121,1.005,3.686,2.448
		C38.99,9.29,38.2,9.2,37.3,9.2c-2.273,0-3.976,0.999-5.283,2.157C32.006,11.236,32,11.117,32,11C32,8.757,33.757,7,36,7z M14,7
		c2.243,0,4,1.757,4,4c0,0.071-0.002,0.143-0.006,0.215C16.721,10.12,15.077,9.2,12.9,9.2c-0.994,0-1.854,0.104-2.601,0.288
		C10.852,8.024,12.314,7,14,7z M10,43c-4.411,0-8-3.589-8-8c0-0.62,0.071-1.224,0.205-1.803c0.176-0.135,0.31-0.328,0.367-0.56
		c0.006-0.024,0.125-0.511,0.323-1.312C4.228,28.759,6.913,27,10,27c4.411,0,8,3.589,8,8S14.411,43,10,43z M30.223,32.42
		C30.209,32.445,28.765,35,25,35c-3.697,0-5.154-2.459-5.226-2.585c-0.049-0.089-0.109-0.166-0.178-0.233
		C18.376,28.035,14.536,25,10,25c-2.262,0-4.351,0.755-6.028,2.025c1.005-3.958,2.313-8.964,3.088-11.346
		C7.775,13.229,8.708,11.2,12.9,11.2c2.038,0,3.476,1.117,4.627,2.333c0.071,0.296,0.277,0.557,0.579,0.686
		c0.021,0.009,0.041,0.017,0.061,0.024c0.125,0.145,0.248,0.288,0.367,0.428c0.99,1.162,2.22,2.606,3.63,1.477
		C22.88,15.511,24.032,15.1,25.1,15.1c1.032,0,2.117,0.394,2.949,1.059c0.299,0.255,1.108,0.763,2.187-0.048
		c0.433-0.327,0.86-0.825,1.354-1.401c0.183-0.214,0.376-0.438,0.58-0.667c0.052-0.047,0.098-0.098,0.138-0.153
		c1.195-1.313,2.768-2.689,4.992-2.689c1.319,0,2.311,0.21,3.076,0.582c0.094,0.075,0.201,0.133,0.318,0.17
		c1.343,0.796,1.92,2.154,2.448,3.737c0.728,2.404,2.067,7.514,3.095,11.499C44.526,25.82,42.356,25,40,25
		c-4.536,0-8.376,3.035-9.596,7.182C30.334,32.249,30.272,32.329,30.223,32.42z M40,43c-4.411,0-8-3.589-8-8s3.589-8,8-8
		c3.509,0,6.497,2.271,7.573,5.42c0.035,0.138,0.055,0.216,0.057,0.225c0.019,0.073,0.045,0.143,0.077,0.207
		C47.898,33.536,48,34.256,48,35C48,39.411,44.411,43,40,43z"/>
	<path d="M25,25c-2.206,0-4,1.794-4,4s1.794,4,4,4c2.206,0,4-1.794,4-4S27.206,25,25,25z M25,31c-1.103,0-2-0.897-2-2s0.897-2,2-2
		c1.103,0,2,0.897,2,2S26.103,31,25,31z"/>
	<path d="M41,39c-2.243,0-4-1.757-4-4c0-0.553-0.447-1-1-1s-1,0.447-1,1c0,3.364,2.636,6,6,6c0.553,0,1-0.447,1-1S41.553,39,41,39z"
		/>
</g>
</svg>
