<?xml version="1.0" encoding="utf-8"?>
<!-- Generator: Adobe Illustrator 17.0.2, SVG Export Plug-In . SVG Version: 6.00 Build 0)  -->
<!DOCTYPE svg PUBLIC "-//W3C//DTD SVG 1.0//EN" "http://www.w3.org/TR/2001/REC-SVG-20010904/DTD/svg10.dtd">
<svg version="1.0" id="Layer_1" xmlns="http://www.w3.org/2000/svg" xmlns:xlink="http://www.w3.org/1999/xlink" x="0px" y="0px"
	 width="50px" height="50px" viewBox="0 0 50 50" style="enable-background:new 0 0 50 50;fill:#9c27b0" xml:space="preserve">
<g>
	<path d="M25,0C11.215,0,0,11.215,0,25s11.215,25,25,25s25-11.215,25-25S38.785,0,25,0z M25,48C12.318,48,2,37.683,2,25
		C2,12.318,12.318,2,25,2c12.683,0,23,10.318,23,23C48,37.683,37.683,48,25,48z"/>
	<path d="M26,22.184V6c0-0.552-0.447-1-1-1c-0.552,0-1,0.448-1,1v16.184c-1.163,0.413-2,1.512-2,2.816
		c0,0.462,0.113,0.895,0.3,1.286l-6.007,6.007c-0.391,0.391-0.391,1.023,0,1.414C16.488,33.902,16.744,34,17,34
		s0.512-0.098,0.707-0.293l6.007-6.007C24.105,27.887,24.538,28,25,28c1.657,0,3-1.343,3-3C28,23.696,27.163,22.597,26,22.184z"/>
</g>
</svg>
